<svg xmlns="http://www.w3.org/2000/svg" width="682.3166" height="294.1103" viewBox="0 0 682.3166 294.1103"><title>lindseyharrodlogosig</title><g id="4747a213-05c8-4503-a05d-40c0920b3403" data-name="Layer 2"><g id="ed114327-9a86-4eb3-9337-bf2a47120abf" data-name="Layer 1"><path d="M316.2921,118.415c-.493.5646-.9641,1.1486-1.44,1.7276Q303.66,133.7471,292.46,147.3448c-1.038,1.2569-2.2075,2.4052-3.8951,4.23a27.1917,27.1917,0,0,1,.0118-2.8788c1.2057-8.0237,2.5563-16.0278,3.6177-24.07.7836-5.9375,1.3167-11.9165,1.68-17.8942.0768-1.2632-1.07-2.601-1.6537-3.9044-1.1653.7186-2.7332,1.1689-3.4236,2.2042-2.4891,3.732-4.6771,7.6645-6.989,11.5151-4.2385,7.0594-8.347,14.2029-12.809,21.1182-1.3779,2.1356-3.7273,3.6445-5.6318,5.44l-1.1924-.6368a53.2441,53.2441,0,0,1,.0451-6.53c.601-4.8294,1.6471-9.611,2.0669-14.4507.1281-1.4759-1.1959-3.0776-1.8548-4.6218-1.049,1.1531-2.4841,2.1431-3.0565,3.4977-.8589,2.0325-1.1129,4.3207-1.7193,6.9061-2.5753-2.9219-4.1087-.7674-5.8152.9893-5.5661,5.73-11.1049,11.4887-16.7988,17.0894a23.9488,23.9488,0,0,1-5.7668,4.0892c-2.3212,1.1983-4.9966,2.3279-6.969-.6807-1.6936-2.5834-.949-5.7451,1.666-7.9993,7.7011-6.6386,13.0615-14.6523,14.9243-24.8391.4676-2.5569.67-5.3266-1.8583-6.1463-1.9788-.6417-4.6381.259-6.8124,1.0059-1.1335.3893-2.04,1.8213-2.761,2.9639-3.18,5.0378-6.2555,10.1417-9.4725,15.3909-4.501-1.7-6.2105,2.947-9.1151,5.0339-3.1587,2.2695-5.93,5.0779-9.3085,8.0349-1.9619-10.3107-7.2984-17.82-14.5579-24.125a8.3353,8.3353,0,0,1-1.0091-1.106c-2.5824-3.2291-2.8253-5.4919.2389-8.1613A120.9989,120.9989,0,0,1,196.2842,100.1c1.4431-.973,3.7339-1.5309,2.4025-3.6562-.5173-.8257-3.2717-1.1937-4.3174-.5853-5.18,3.0143-10.1295,6.4247-14.8248,9.4774a8.3672,8.3672,0,0,1,.2537-.9867q10.4481-33.7844,20.9-67.5677a46.7665,46.7665,0,0,0,1.8727-6.8386A3.52,3.52,0,0,0,201.2,26.941a3.3439,3.3439,0,0,0-3.037,1.09,51.4779,51.4779,0,0,0-4.4377,7.7681c-10.4728,22.9219-20.8455,45.8895-31.3389,68.8019-.7422,1.6207-1.9062,3.5992-3.3821,4.2382-6.6457,2.8776-11.1494,7.8434-14.8392,13.8061a6.9873,6.9873,0,0,1-2.0143,1.9351c-1.5185,1.0415-3.4941,1.6431-4.6282,2.98-5.3325,6.2863-10.35,12.8394-15.6757,19.1317-2.4332,2.8749-5.3176,5.3681-7.9974,8.0344l-1.1841-.6318c1.3593-6.95,2.7424-13.8954,4.07-20.8513,1.1217-5.8765,2.3813-11.74,3.1215-17.6664a5.513,5.513,0,0,0-2.3052-4.5238c-1.2839-.67-3.5669-.072-5.1281.616a11.3872,11.3872,0,0,0-4.0016,3.3227c-5.0725,6.3178-10.0179,12.7379-14.9987,19.1291-.7674.9848-1.4837,2.0095-2.2236,3.0157l-1.2133-.5718c1.22-3.9793,2.4667-7.9509,3.65-11.9412.6124-2.0649.7035-4.0694-1.826-4.9435-2.4449-.845-3.2556.6741-3.94,2.7042a14.27,14.27,0,0,1-2.5013,4.8514c-7.43,8.4437-14.9783,16.7838-22.5452,25.1057a35.3115,35.3115,0,0,1-4.1959,3.2138c.2182-2.9218.0638-4.6819.5131-6.2714q6-21.2286,12.1942-42.4023c.6793-2.34,2.4482-5.0875-.9329-6.2946-.809-.2888-3.5561,2.3951-4.067,4.1119q-6.828,22.944-13.0314,46.0707c-.5627,2.0973-.0352,4.7232.6806,6.8737,1.1493,3.4529,4.08,4.4827,7.19,2.5134a35.888,35.888,0,0,0,7.1555-5.93c4.991-5.423,9.7445-11.0662,14.5272-16.6774a13.4145,13.4145,0,0,0,1.4478-2.8638l1.1353,1.0582c-.0815.4833-.153.9687-.2458,1.45-.97,5.0242-2.088,10.0275-2.7975,15.088-.1481,1.056,1.21,2.3232,1.8737,3.4931a25.3572,25.3572,0,0,0,3.1584-1.9968c.5281-.444.6823-1.3127,1.0618-1.9565,6.4674-10.9713,12.6851-22.118,21.5488-31.4409a35.3877,35.3877,0,0,1,3.4514-2.8409l1.0285.6315c-.512,2.8812-1.0178,5.7635-1.5369,8.6434-1.6362,9.0785-3.4644,18.1293-4.7674,27.2552-.2795,1.9574.9217,5.5928,2.1735,5.96,1.9044.5593,4.9-.497,6.6219-1.8775,3.0884-2.4758,5.6394-5.6453,8.2973-8.63,3.8824-4.3592,7.6608-8.811,11.9335-13.7425a39.0267,39.0267,0,0,0-.615,3.99c-.0933,2.5574-.8782,5.4613,2.2906,6.8618,3.3461,1.4789,4.9266-1.243,6.2741-3.2976,5.2621-8.0236,10.2623-16.2187,15.4182-24.3129.8229-1.2918,2.128-3.48,2.8883-3.3514A6.07,6.07,0,0,1,167.41,118.63a9.5635,9.5635,0,0,1,.8565,5.9054c-5.0974,21.3558-10.4736,42.645-15.5965,63.9949-1.9209,8.0056-3.4581,16.108-4.9412,24.2081-.1946,1.063.9786,2.3764,1.5183,3.5739a26.0117,26.0117,0,0,0,3.161-2.3926,4.4546,4.4546,0,0,0,.7137-2.0988c4.006-17.8979,7.8113-35.8435,12.0547-53.6849,3.3851-14.2322,7.3015-28.3381,11.01-42.606,3.3931,3.6516,6.6636,6.6046,9.2281,10.0788a77.4354,77.4354,0,0,1,7.9422,12.9747c2.2952,4.9022,1.4759,9.329-2.9326,13.4407a33.8408,33.8408,0,0,0-9.9947,17.2736c-.95,4.1341.8445,8.4791,3.9191,10.157,3.044,1.6612,6.9282.8083,10.0511-2.6688a14.5682,14.5682,0,0,0,3.5971-6.0062c1.3074-5.7968,1.9889-11.7322,3.0251-17.5939.3564-2.0158.4213-4.5507,1.6626-5.8574,4.2243-4.4467,8.914-8.4512,13.426-12.6246l.9539.8483a41.8434,41.8434,0,0,0-3.1021,4.2283c-.5577.98-1.1835,2.4761-.8162,3.3241,1.1573,2.6719,2.9839,5.0524,4.157,7.7193,2.0192,4.59,5.0825,6.5919,9.7741,5.0679a25.0226,25.0226,0,0,0,8.785-4.7137c7.3173-6.5074,14.2639-13.4316,21.3976-20.2338-.1186,1.89-.3664,3.966-.3464,6.04a43.4512,43.4512,0,0,0,.4979,6.3444c.9342,5.9123,4.884,7.5538,9.558,3.78a33.8208,33.8208,0,0,0,6.0629-6.582c4.652-6.4753,9.0772-13.1137,13.5924-19.6874l.9189.22c-.2144,2.19-.2587,4.4137-.6729,6.5657-1.698,8.8218-3.7667,17.5807-5.1823,26.4453-.8636,5.4078-3.235,9.7493-6.4029,14.0826-9.3519,12.7926-19.0181,25.4251-27.3784,38.8566-12.4644,20.0251-21.8951,41.5166-26.0389,64.9457a48.3975,48.3975,0,0,0-.3526,14.8494c.9763,7.0325,7.0886,9.4553,12.7662,5.1962a40.5013,40.5013,0,0,0,9.373-9.5488A135.0285,135.0285,0,0,0,254.9372,262.66c10.55-23.6685,17.2574-48.6536,23.99-73.579,8.2067-30.3824,2.8286-20.5847,24.0327-46.6672,5.6747-6.98,11.5531-13.7962,17.1565-20.8321.7375-.926,1.0333-3.1957.4227-4.0068C319.0378,115.58,317.5133,117.0167,316.2921,118.415Zm-83.0063-2.9279c-1.5964,7.1958-4.1892,12.91-9.7974,17.843C224.9433,126.0979,227.72,120.485,233.2858,115.4871Zm-88.3448,19.72-1.46-.9969,8.5687-13.9463,1.3127.7824Zm26.5823-21.4761c-4.5715-1.657-5.77-4.1109-3.9316-7.8807,4.4174-9.0607,8.8885-18.0952,13.3381-27.14l.7614.3356Zm19.6746,58.2665c-.9046,1.2876-3.21,1.5908-4.8727,2.3458-.1036-1.5858-.6165-3.2776-.2379-4.7384,1.408-5.4329,4.5594-9.8421,9.2492-14.2518C195.8208,161.9812,194.4755,167.3322,191.198,171.9971Zm81.993,17.2119c-6.0274,22.39-12.0963,44.7973-21.3352,66.1189-3.75,8.6553-8.6768,16.8162-13.3232,25.0582a24.0594,24.0594,0,0,1-5.41,6.133c-1.0524.9022-3.1771,1.5891-4.2736,1.1153a4.7579,4.7579,0,0,1-2.1707-3.8527c.4982-6.3039.6826-12.7691,2.2975-18.8254,8.3495-31.3112,23.3817-59.2555,43.6748-84.4363.6849-.85,1.2822-1.77,1.92-2.6581l1.0731.6531C274.8327,182.0814,274.141,185.68,273.191,189.209Z"/><path d="M473.6139,85.8536c4.4963-1.4743,8.8109-3.493,13.2583-5.1284,9.2468-3.4,18.5581-6.6274,27.7625-10.1368,1.2789-.4876,3.0984-2.3364,2.944-3.27-.42-2.5435-2.7-1.9258-4.5438-1.4675a26.9386,26.9386,0,0,0-2.8453.9229Q492.2976,73.4089,474.41,80.0564c-1.2477.4626-2.5205.8577-4.509,1.53.3474-1.8488.4739-3.03.7957-4.1558,3.2581-11.3929,6.6606-22.7459,9.7983-34.1716,3.335-12.1432,6.5823-24.3165,9.4692-36.57C490.43,4.7094,488.8229,2.2418,488.1737,0c-2.1494.673-4.6965.8525-6.329,2.1674-1.43,1.1519-1.8326,3.5789-2.6892,5.4427H484.8a24.8572,24.8572,0,0,1-.5375,3.147c-6.5342,22.6513-13.1466,45.28-19.6091,67.9519-1.1731,4.1152-3.6312,6.3532-7.5083,8.0524-15.9812,7.0044-31.8235,14.3262-47.7158,21.5334-1.069.4849-2.13.9867-4.2249,1.9582.7307-2.924,1.02-4.8674,1.6953-6.6662q15.31-40.8058,30.709-81.5782c.3953-1.0488,1.1521-2.1231,1.0845-3.142-.0776-1.1708-.8865-2.2932-1.3777-3.4366a18,18,0,0,0-3.03,1.5272,4.705,4.705,0,0,0-1.08,1.939c-12.2249,28.5673-23.7053,57.4259-32.8109,87.1546-2.0216,6.6-5.3577,11.5366-11.1855,15.2079-8.2373,5.1895-16.2423,10.7508-24.2883,16.2385-1.8961,1.2932-4.6926,2.909-2.5684,5.5563s3.9182-.3138,5.6041-1.4576c8.6315-5.856,17.22-11.776,26.8051-18.347-.5733,2.9875-.8989,4.8683-1.2977,6.7333-3.0249,14.1443-6.2,28.259-8.9818,42.4509-.5429,2.77.1185,5.9108.8019,8.7411.4725,1.9571,2.3259,2.4937,4.2413,1.3791,1.665-.969,2.2737-2.0621,1.7448-4.2845-.7544-3.17-1.46-6.7172-.7892-9.7989,3.3174-15.2311,7.14-30.3515,10.6752-45.5364a9.6258,9.6258,0,0,1,5.5148-7.0643q24.88-11.6881,49.7567-23.3844a25.1922,25.1922,0,0,1,3.7484-.9948c-.43,1.9612-.6482,3.2506-.9979,4.5032q-13.5826,48.6574-27.1707,97.3133c-.604,2.1681-2.2241,5.2.7839,6.2054,3.4419,1.151,3.79-2.56,4.4194-4.7258,2.4359-8.3838,4.5311-16.8658,6.8961-25.2711,6.9935-24.855,14.09-49.6812,21.0587-74.5431C466.45,90.3859,468.9908,87.37,473.6139,85.8536Z"/><path d="M680.7408,26.8981c-.5247-.3492-2.2876.23-2.7612.9058a47.2967,47.2967,0,0,0-4.3469,7.3809c-10.5747,23.1374-21.0369,46.3264-31.645,69.4484-.7817,1.704-2.1477,3.6544-3.7458,4.3785-6.3336,2.87-10.6924,7.632-14.2615,13.3593-.5649.9067-1.301,2.1293-2.1753,2.3519-5.4138,1.3785-10.8616,2.6652-16.3533,3.6846-5.23.9709-5.2745.4276-4.8652-4.798.3438-4.3881.4031-9.0841-.8088-13.236-1.5049-5.1559-6.3842-5.8759-10.3568-2.2092-4.4974,4.1511-6.8035,9.291-5.9784,15.43a20.3483,20.3483,0,0,1-2.2009,12.6379,29.6711,29.6711,0,0,0-2.8628,17.8475c.5154,4.1055,3.7385,5.9849,7.2866,4.1823a8.2762,8.2762,0,0,0,3.4563-3.2638c2.5775-4.952,5.0553-9.9753,7.196-15.1276,1.1757-2.83,2.3618-5.1085,5.7085-5.6781,5.4941-.9351,10.9561-2.0588,16.4695-3.11-.7965,3.1649-2.0273,6.2271-2.1873,9.3442-.1036,2.0211.7758,4.8458,2.2458,6.0251,2.4551,1.97,4.4684-.4921,5.7363-2.4244,5.33-8.1228,10.447-16.3851,15.7183-24.5471a40.5993,40.5993,0,0,1,3.3894-4.0367c1.4946,1.4238,3.4111,2.6188,4.3472,4.3455.7167,1.3218.5647,3.4083.1654,4.9952-3.4991,13.9067-7.3815,27.7208-10.6753,41.6744-3.5815,15.1721-6.7052,30.4536-9.8563,45.723-.2515,1.2186.4619,3.4789,1.377,3.9268,2.1521,1.0534,3.02-.9224,3.5222-2.6714.8259-2.8749,1.646-5.7582,2.2908-8.6772,3.9268-17.7826,6.9459-35.8176,11.8723-53.3168,10.8781-38.64,22.7083-77.0121,34.1506-115.4933a38.3767,38.3767,0,0,0,1.7137-6.1055A3.7988,3.7988,0,0,0,680.7408,26.8981ZM592.34,136.079c-2.2013,5.5923-4.7091,11.0639-7.0992,16.5818l-1.7173-.3192c-.1456-1.0376-.6039-2.1476-.3828-3.1.9539-4.1094,1.988-8.21,3.26-12.23a6.0263,6.0263,0,0,1,2.519-3.0468C590.7062,132.9034,593.01,134.3769,592.34,136.079Zm2.5848-10.37c-.3643,2.7106-2.175,3.2368-3.8833,1.7579-1.4088-1.22-2.8586-3.4314-2.759-5.1128a19.2991,19.2991,0,0,1,2.63-7.5891c.6367-1.186,2.3737-1.7812,3.613-2.6436.6659,1.3918,1.3317,2.7837,1.7875,3.7365C595.789,119.56,595.3381,122.6316,594.9247,125.7087Zm29.4771,9.6344-1.3389-.7969,8.1716-13.7764,1.48.8982Q628.5584,128.5056,624.4017,135.3431ZM651.04,114.037c-4.9509-2.7968-5.5957-4.5919-3.4915-8.8812q6.3274-12.8987,12.6782-25.7859l.8958.34C657.7726,91.1159,654.4223,102.522,651.04,114.037Z"/><path d="M61.1639,167.326c-2.4821-1.9546-3.9864.4448-5.5975,1.9682-2.618,2.4755-5.0212,5.327-8.018,7.2262-10.3269,6.5445-20.8383,12.8015-31.3577,19.036a95.0947,95.0947,0,0,1-8.7153,4.0128,48.5212,48.5212,0,0,1,.0256-5.3817c1.845-14.1069,3.6725-28.2168,5.6525-42.3052,5.7827-41.147,11.6655-82.28,17.4126-123.4319a90.6644,90.6644,0,0,0,.86-14.1842,5.0351,5.0351,0,0,0-3.1434-3.7c-2.3666-.4085-2.8424,1.7662-2.8109,3.8345a40.7629,40.7629,0,0,1-.1008,5.9893c-3.8042,28.4471-7.473,56.9144-11.57,85.32C9.526,135.3493,4.8027,164.9245.3351,194.537c-.6075,4.0265-.7878,8.2368,3.0426,10.92,3.6661,2.5681,7.3147.6788,10.5294-1.2085,13.0143-7.64,26.0037-15.3311,38.8148-23.3042,2.9943-1.8635,5.3961-4.7791,7.8018-7.4524C62.09,171.7516,63.7843,169.39,61.1639,167.326Z"/><path d="M548.8558,111.05c-1.4651-2.1852-3.3442-1.0157-4.9113.0233a38.3912,38.3912,0,0,0-5.9923,4.45c-6.0088,5.97-11.8516,12.107-18.2855,18.7233-.61-2.2936-.9674-4.2345-1.6508-6.0529-.7827-2.0831-2.28-3.4744-4.6475-2.3568-2.2375,1.0561-2.49,2.7054-1.2623,4.9546.5858,1.0736.8461,3.0834.2329,3.9283-3.6639,5.05-7.5927,9.91-11.5154,14.767a29.65,29.65,0,0,1-3.6527,3.09c.2756-2.9329.42-4.7751.6262-6.61.8464-7.5436,2.1021-15.0693,2.4081-22.634.1575-3.8915-.9917-8.5059-5.2914-9.9581-3.8217-1.2908-6.8862,1.755-9.321,4.36-9.575,10.2467-14.4656,22.8843-17.5334,36.2769-.3982,1.7385,1.2034,3.9352,1.8787,5.92,1.8792-.6932,4.37-.8493,5.5315-2.1726,5.0173-5.7172,9.6472-11.7748,14.4136-17.712.7988-.9949,1.5759-2.0073,2.3629-3.0116.3441,4.8361-.1825,9.2892-.2692,13.7509-.06,3.0923-1.09,7.0332,2.8344,8.519,3.944,1.4932,6.0968-1.7366,8.2283-4.3631,3.5416-4.3644,7.0618-8.7463,10.7841-13.36a8.8363,8.8363,0,0,0,.5,1.5254c.7856,1.2611,1.6136,2.4959,2.4261,3.74a19.5023,19.5023,0,0,0,3.4954-2.7545c1.4862-1.8328,2.3733-4.1982,4.0009-5.8616,7.4862-7.6512,15.1039-15.1755,22.7705-22.6466C548.3951,114.2422,550.3132,113.2244,548.8558,111.05Zm-54.615,13.5113c-5.9092,8-11.8835,15.9526-17.8413,23.9172l-1.4927-.61c1.0272-2.8442,1.6453-5.9313,3.162-8.4847,3.8177-6.4268,7.9954-12.6433,12.1543-18.86.5834-.8719,1.8724-1.2718,2.8348-1.89a18.1729,18.1729,0,0,1,1.8518,3.5A3.2774,3.2774,0,0,1,494.2408,124.5616Z"/><path d="M581.3246,110.4758c-.8555-.5776-3.0786-.2017-3.9949.56-5.2477,4.3647-10.4193,8.8411-15.354,13.5546-3.0275,2.8919-5.5851,6.2757-8.99,10.166-.8086-2.9686-.976-5.2278-2.0419-6.9217a5.116,5.116,0,0,0-4.1006-1.9549c-.8516.0886-2.4226,2.9387-2.0583,3.495,2.8057,4.2858,2.05,9.142,2.823,13.7462.2246,1.3372,1.5259,2.4936,2.3336,3.7329,1.1183-.7963,2.495-1.3892,3.31-2.4241,3.5383-4.4906,6.5206-9.4851,10.4432-13.5911,5.3121-5.56,11.2555-10.5255,17.0247-15.637C582.4708,113.65,583.6876,112.071,581.3246,110.4758Z"/><path d="M77.9194,73.0649c-1.6943,1.1843-3.28,2.6448-5.15,3.3826-.5522.2178-1.91-1.6055-2.898-2.4934,1.5-1.2236,2.8678-2.7214,4.5634-3.5407.712-.3441,2.1178.7476,3.2081,1.1865Z"/></g></g></svg>