<?xml version="1.0" encoding="UTF-8" standalone="no"?><!DOCTYPE svg PUBLIC "-//W3C//DTD SVG 1.1//EN" "http://www.w3.org/Graphics/SVG/1.1/DTD/svg11.dtd"><svg width="100%" height="100%" viewBox="0 0 26315 12505" version="1.1" xmlns="http://www.w3.org/2000/svg" xmlns:xlink="http://www.w3.org/1999/xlink" xml:space="preserve" xmlns:serif="http://www.serif.com/" style="fill-rule:evenodd;clip-rule:evenodd;stroke-linecap:round;stroke-linejoin:round;stroke-miterlimit:1.5;"><g><g><path d="M1201.37,6908.01l0,-422.549l-745.675,0l0,-2444.16l-422.55,0l0,2866.71l1168.23,0Zm33.141,33.141l-1234.51,0l0,-2932.99l488.832,0l0,2444.16l745.675,0l0,488.831Z" style="fill:#3b543b;fill-rule:nonzero;"/><path d="M1876.62,6908.01l0,-2866.71l-422.55,0l0,2866.71l422.55,0Zm33.141,33.141l-488.832,0l0,-2932.99l488.832,0l0,2932.99Z" style="fill:#3b543b;fill-rule:nonzero;"/><path d="M2912.28,5888.91l331.411,-1880.76l497.117,0l-588.255,2932.99l-480.546,0l-588.255,-2932.99l497.117,0l331.411,1880.76Zm0,190.562l-356.267,-2038.18l-430.835,0l571.685,2866.71l430.834,0l571.685,-2866.71l-430.835,0l-356.267,2038.18Z" style="fill:#3b543b;fill-rule:nonzero;"/><path d="M5149.3,4496.99l-745.676,0l0,695.964l513.688,0l0,488.831l-513.688,0l0,770.532l745.676,0l0,488.831l-1234.51,0l0,-2932.99l1234.51,0l0,488.832Zm-33.142,-33.141l0,-422.55l-1168.22,0l0,2866.71l1168.22,0l0,-422.549l-745.675,0l0,-836.814l513.688,0l0,-422.549l-513.688,0l0,-762.246l745.675,0Z" style="fill:#3b543b;fill-rule:nonzero;"/><path d="M7502.32,4008.16l497.117,0l-360.41,2932.99l-281.699,0l-393.551,-1396.07l-389.409,1396.07l-281.699,0l-360.41,-2932.99l497.117,0l149.135,1371.21l244.416,-911.382l285.842,0l244.416,911.382l149.135,-1371.21Zm33.141,33.141l-165.705,1520.35l-285.843,-1060.52l-236.13,0l-285.843,1060.52l-165.705,-1520.35l-422.55,0l352.125,2866.71l223.702,0l414.265,-1487.21l418.406,1487.21l223.703,0l352.125,-2866.71l-422.55,0Z" style="fill:#3b543b;fill-rule:nonzero;"/><path d="M8645.69,6908.01l0,-2866.71l-422.549,0l0,2866.71l422.549,0Zm33.141,33.141l-488.831,0l0,-2932.99l488.831,0l0,2932.99Z" style="fill:#3b543b;fill-rule:nonzero;"/><path d="M10269.6,4008.16l0,488.832l-463.976,0l0,2444.16l-488.832,0l0,-2444.16l-463.976,0l0,-488.832l1416.78,0Zm-33.141,33.141l-1350.5,0l0,422.55l463.976,0l0,2444.16l422.55,0l0,-2444.16l463.976,0l0,-422.55Z" style="fill:#3b543b;fill-rule:nonzero;"/><path d="M11359.1,4008.16l488.832,0l0,2932.99l-488.832,0l0,-1259.36l-430.834,0l0,1259.36l-488.832,0l0,-2932.99l488.832,0l0,1184.8l430.834,0l0,-1184.8Zm33.142,33.141l0,1184.8l-497.117,0l0,-1184.8l-422.55,0l0,2866.71l422.55,0l0,-1259.36l497.117,0l0,1259.36l422.549,0l0,-2866.71l-422.549,0Z" style="fill:#3b543b;fill-rule:nonzero;"/></g><g><g><rect x="23.457" y="7130.87" width="11829" height="325.429" style="fill:none;stroke:#3b543b;stroke-width:14.58px;"/></g><g><g><g id="_19a3754e-17dc-4d38-9b38-ee63dbd44d18" serif:id="19a3754e-17dc-4d38-9b38-ee63dbd44d18"><g id="d81a9988-ba32-4916-abb8-663c2e63aa47"><path d="M26114.5,4811.74c-21.587,24.737 -42.208,50.308 -63.05,75.658c-326.671,397.071 -653.471,794.1 -980.4,1191c-45.45,55.033 -96.633,105.3 -170.537,185.204c-2.059,-41.987 -1.884,-84.067 0.525,-126.054c52.758,-351.317 111.912,-701.763 158.366,-1053.87c34.325,-259.942 57.663,-521.721 73.555,-783.462c3.37,-55.296 -46.846,-113.88 -72.375,-170.93c-51.05,31.438 -119.705,51.138 -149.913,96.5c-108.979,163.4 -204.775,335.555 -306.004,504.167c-185.554,309.067 -365.463,621.858 -560.825,924.621c-60.333,93.521 -163.179,159.592 -246.588,238.183l-52.191,-27.891c-5.209,-95.23 -4.55,-190.721 1.971,-285.905c26.316,-211.433 72.112,-420.804 90.5,-632.675c5.604,-64.625 -52.363,-134.766 -81.217,-202.366c-45.929,50.483 -108.758,93.829 -133.804,153.112c-37.609,89.009 -48.729,189.188 -75.304,302.413c-112.746,-127.938 -179.863,-33.625 -254.605,43.3c-243.7,250.879 -486.216,503.029 -735.516,748.216c-74.829,71.85 -159.942,132.184 -252.5,179.034c-101.625,52.496 -218.746,101.925 -305.129,-29.775c-74.125,-113.138 -41.55,-251.538 72.941,-350.267c337.221,-290.637 571.904,-641.517 653.471,-1087.54c20.446,-111.954 29.333,-233.191 -81.392,-269.091c-86.604,-28.109 -203.07,11.337 -298.254,44.046c-49.608,17.033 -89.321,79.729 -120.887,129.775c-139.234,220.579 -273.867,444.008 -414.717,673.87c-197.071,-74.429 -271.942,129.03 -399.133,220.409c-138.267,99.346 -259.634,222.333 -407.538,351.8c-85.9,-451.454 -319.529,-780.225 -637.4,-1056.32c-16.154,-14.754 -30.908,-30.954 -44.175,-48.383c-113.05,-141.421 -123.691,-240.459 10.463,-357.359c167.779,-137.787 343.875,-265.154 527.287,-381.312c63.179,-42.6 163.488,-67.034 105.209,-160.071c-22.68,-36.167 -143.259,-52.279 -189.055,-25.658c-226.8,132.008 -443.483,281.308 -649.091,414.979c2.846,-14.625 6.566,-29.071 11.121,-43.213c304.995,-986.137 609.991,-1972.28 915.075,-2958.37c34.895,-97.596 62.304,-197.684 82.008,-299.392c3.021,-51.008 -19.483,-100.308 -60.029,-131.438c-49.517,-7.925 -99.784,10.113 -132.971,47.721c-74.521,107.534 -139.538,221.329 -194.313,340.113c-458.541,1003.6 -912.666,2009.18 -1372.13,3012.4c-32.487,70.929 -83.454,157.575 -148.079,185.554c-290.942,126.008 -488.142,343.396 -649.704,604.475c-23.379,33.887 -53.371,62.7 -88.179,84.721c-66.504,45.62 -152.979,71.937 -202.629,130.475c-233.496,275.225 -453.159,562.179 -686.35,837.666c-106.525,125.879 -232.842,235.029 -350.184,351.759l-51.837,-27.671c59.546,-304.296 120.096,-608.375 178.2,-912.934c49.125,-257.27 104.291,-514.016 136.691,-773.479c0.567,-78.458 -37.129,-152.454 -100.92,-198.075c-56.221,-29.337 -156.175,-3.154 -224.567,26.971c-68.829,34.325 -128.767,84.108 -175.179,145.492c-222.113,276.579 -438.621,557.712 -656.709,837.533c-33.583,43.129 -64.929,87.963 -97.329,132.008l-53.154,-25c53.417,-174.258 108.013,-348.12 159.808,-522.862c26.842,-90.371 30.825,-178.154 -79.945,-216.421c-107.055,-37 -142.517,29.508 -172.509,118.388c-22.504,77.191 -59.679,149.304 -109.504,212.437c-325.312,369.667 -655.787,734.821 -987.1,1099.19c-57.662,51.445 -119.046,98.47 -183.717,140.72c9.546,-127.937 2.805,-204.995 22.463,-274.566c175.133,-619.667 353.112,-1238.5 533.896,-1856.55c29.775,-102.455 107.183,-222.725 -40.85,-275.575c-35.421,-12.65 -155.692,104.862 -178.067,180.041c-199.304,669.713 -389.5,1342.1 -570.542,2017.1c-24.654,91.859 -1.533,206.834 29.771,300.971c50.35,151.184 178.638,196.279 314.804,110.025c115.284,-72.591 220.58,-159.85 313.313,-259.633c218.525,-237.438 426.671,-484.508 636.046,-730.179c26.096,-39.1 47.375,-81.217 63.4,-125.396l49.691,46.321c-3.545,21.191 -6.7,42.429 -10.725,63.487c-42.47,220.013 -91.42,439.063 -122.508,660.609c-6.479,46.233 52.979,101.75 82.05,152.979c48.163,-25.746 94.4,-54.95 138.271,-87.438c23.117,-19.437 29.858,-57.487 46.496,-85.683c283.15,-480.35 555.396,-968.404 943.491,-1376.6c47.684,-44.571 98.163,-86.121 151.1,-124.388l45.05,27.671c-22.416,126.142 -44.57,252.325 -67.295,378.421c-71.63,397.513 -151.709,793.796 -208.759,1193.36c-12.216,85.687 40.367,244.837 95.188,260.95c83.362,24.475 214.537,-21.759 289.933,-82.225c135.204,-108.409 246.896,-247.159 363.271,-377.85c169.967,-190.855 335.425,-385.78 522.512,-601.675c-11.995,57.708 -20.97,116.029 -26.925,174.695c-4.116,111.955 -38.487,239.105 100.263,300.4c146.5,64.755 215.721,-54.42 274.7,-144.354c230.387,-351.321 449.35,-710.125 675.054,-1064.51c36.033,-56.571 93.171,-152.367 126.492,-146.763c72.721,17.209 134.983,64.275 171.279,129.642c39.754,79.992 52.892,170.583 37.479,258.588c-223.167,934.995 -458.546,1867.15 -682.85,2801.93c-84.108,350.487 -151.4,705.266 -216.333,1059.91c-8.538,46.542 42.821,104.029 66.462,156.483c48.734,-31.35 95.013,-66.375 138.4,-104.775c17.996,-27.495 28.725,-59.108 31.263,-91.9c175.396,-783.637 341.991,-1569.33 527.766,-2350.52c148.25,-623.125 319.709,-1240.74 482.059,-1865.44c148.6,159.9 291.771,289.192 404.079,441.296c134.237,177.496 250.746,367.779 347.725,568.091c100.483,214.625 64.625,408.455 -128.417,588.45c-218.521,202.367 -371.062,465.988 -437.616,756.317c-41.592,181 37,371.242 171.633,444.708c133.275,72.725 303.333,35.38 440.067,-116.858c73.075,-73.554 127.15,-163.792 157.491,-262.962c57.225,-253.813 87.084,-513.667 132.446,-770.33c15.588,-88.266 18.433,-199.258 72.767,-256.437c184.987,-194.708 390.287,-370.017 587.837,-552.767l41.771,37.125c-49.083,58.846 -94.442,120.671 -135.817,185.163c-24.387,42.908 -51.795,108.408 -35.729,145.537c50.659,116.988 130.65,221.192 182.009,337.963c88.4,200.966 222.554,288.621 427.941,221.896c140.763,-42.296 271.588,-112.48 384.638,-206.396c320.366,-284.9 624.529,-588.054 936.879,-885.871c-5.208,82.75 -16.067,173.646 -15.192,264.45c0.484,93 7.75,185.821 21.804,277.767c40.896,258.845 213.838,330.737 418.484,165.5c100.879,-83.888 190.154,-180.784 265.458,-288.184c203.683,-283.5 397.425,-574.179 595.15,-861.966l40.196,9.633c-9.371,95.883 -11.296,193.217 -29.425,287.437c-74.342,386.259 -164.933,769.759 -226.929,1157.9c-37.784,236.738 -141.642,426.846 -280.346,616.559c-409.463,560.125 -832.675,1113.2 -1198.7,1701.3c-545.721,876.762 -958.642,1817.72 -1140.08,2843.52c-38.57,214.67 -43.783,433.937 -15.454,650.187c42.779,307.883 310.384,413.971 558.984,227.496c159.025,-115.629 297.687,-256.921 410.383,-418.088c188.754,-274.433 353.992,-564.325 493.967,-866.608c461.916,-1036.27 755.575,-2130.25 1050.37,-3221.55c359.334,-1330.23 123.821,-901.283 1052.25,-2043.25c248.429,-305.608 505.834,-604.037 751.15,-912.1c32.313,-40.541 45.229,-139.929 18.521,-175.437c-65.717,-87.304 -132.487,-24.388 -185.946,36.821Zm-3634.3,-128.2c-69.921,315.066 -183.408,565.245 -428.987,781.233c63.704,-316.646 185.291,-562.4 428.987,-781.233Zm-3868.05,863.412l-63.925,-43.65l375.179,-610.608l57.446,34.241l-368.7,620.017Zm1163.85,-940.296c-200.137,-72.55 -252.633,-179.991 -172.112,-345.058c193.391,-396.679 389.146,-792.263 583.983,-1188.28l33.321,14.712l-445.192,1518.63Zm861.442,2551.14c-39.625,56.35 -140.546,69.616 -213.358,102.671c-4.509,-69.396 -26.971,-143.48 -10.421,-207.446c61.646,-237.875 199.654,-430.917 404.954,-624.004c21.233,290.2 -37.654,524.483 -181.175,728.733l0,0.046Zm3589.94,753.6c-263.925,980.316 -529.605,1961.37 -934.121,2894.88c-164.188,378.988 -379.909,736.304 -583.371,1097.17c-63.05,102.367 -143.129,193.171 -236.825,268.525c-46.104,39.492 -139.146,69.571 -187.133,48.817c-57.442,-37.171 -92.996,-100.309 -95.055,-168.696c21.805,-276.013 29.905,-559.075 100.617,-824.225c365.546,-1370.91 1023.7,-2594.44 1912.2,-3696.95c29.992,-37.213 56.175,-77.496 84.108,-116.375l46.98,28.591c-35.509,156.129 -65.805,313.709 -107.4,468.221l0,0.042Z" style="fill:#f8b0b0;fill-rule:nonzero;"/><path d="M14944.1,6953.24c-108.671,-85.596 -174.567,19.483 -245.1,86.166c-114.625,108.409 -219.838,233.234 -351.059,316.379c-452.108,286.563 -912.362,560.517 -1372.92,833.509c-124.17,64.929 -251.533,123.558 -381.57,175.658c-4.03,-78.504 -3.638,-157.137 1.091,-235.6c80.784,-617.654 160.817,-1235.44 247.509,-1852.3c253.158,-1801.56 510.737,-3602.51 762.358,-5404.25c28.812,-205.742 41.379,-413.363 37.654,-621.071c-15.058,-73.908 -67.075,-135.158 -137.608,-162c-103.638,-17.862 -124.479,77.321 -123.079,167.913c4.95,87.391 3.504,175.045 -4.421,262.216c-166.55,1245.51 -327.192,2491.94 -506.575,3735.61c-187.175,1297.75 -393.963,2592.64 -589.588,3889.2c-26.579,176.275 -34.504,360.646 133.234,478.117c160.508,112.437 320.233,29.729 460.995,-52.934c569.8,-334.508 1138.55,-671.246 1699.46,-1020.33c131.087,-81.567 236.254,-209.242 341.6,-326.275c68.562,-76.225 142.733,-179.642 28.021,-270.013l0,0.005Z" style="fill:#f8b0b0;fill-rule:nonzero;"/><path d="M15677.7,2826.18c-74.167,51.837 -143.608,115.808 -225.483,148.121c-24.171,9.5 -83.63,-70.317 -126.888,-109.196c65.675,-53.55 125.571,-119.138 199.829,-154.996c31.175,-15.104 92.734,32.708 140.459,51.929l12.083,64.142Z" style="fill:#f8b0b0;fill-rule:nonzero;"/><path d="M25983.2,4724.2c-21.583,24.737 -42.204,50.308 -63.046,75.658c-326.671,397.071 -653.471,794.1 -980.4,1191c-45.45,55.034 -96.633,105.3 -170.537,185.204c-2.059,-41.987 -1.884,-84.066 0.525,-126.054c52.758,-351.316 111.908,-701.762 158.362,-1053.87c34.329,-259.941 57.667,-521.725 73.558,-783.462c3.371,-55.296 -46.85,-113.879 -72.375,-170.929c-51.05,31.437 -119.704,51.137 -149.912,96.5c-108.979,163.4 -204.779,335.554 -306.004,504.166c-185.554,309.067 -365.463,621.859 -560.825,924.621c-60.334,93.521 -163.179,159.546 -246.588,238.184l-52.191,-27.892c-5.209,-95.229 -4.555,-190.721 1.97,-285.908c26.317,-211.43 72.113,-420.8 90.5,-632.671c5.605,-64.625 -52.362,-134.767 -81.216,-202.367c-45.929,50.483 -108.759,93.829 -133.804,153.113c-37.609,89.008 -48.73,189.187 -75.309,302.412c-112.741,-127.937 -179.862,-33.629 -254.6,43.3c-243.7,250.879 -486.216,503.029 -735.521,748.217c-74.825,71.85 -159.941,132.183 -252.5,179.033c-101.62,52.496 -218.741,101.925 -305.125,-29.775c-74.125,-113.137 -41.55,-251.537 72.942,-350.267c337.221,-290.637 571.9,-641.516 653.471,-1087.54c20.446,-111.954 29.333,-233.192 -81.396,-269.092c-86.6,-28.108 -203.067,11.338 -298.25,44.046c-49.608,17.033 -89.321,79.729 -120.887,129.775c-139.234,220.579 -273.867,444.008 -414.717,673.871c-197.071,-74.434 -271.942,129.029 -399.133,220.408c-138.267,99.342 -259.634,222.333 -407.538,351.8c-85.9,-451.454 -319.529,-780.225 -637.4,-1056.32c-16.154,-14.758 -30.912,-30.958 -44.175,-48.383c-113.05,-141.421 -123.692,-240.458 10.463,-357.358c167.779,-137.788 343.875,-265.155 527.283,-381.313c63.179,-42.6 163.487,-67.033 105.212,-160.075c-22.679,-36.162 -143.258,-52.275 -189.058,-25.654c-226.796,132.008 -443.483,281.308 -649.087,414.979c2.845,-14.625 6.566,-29.071 11.12,-43.212c304.996,-986.138 609.992,-1972.28 915.075,-2958.37c34.896,-97.596 62.305,-197.683 82.005,-299.392c3.025,-51.008 -19.484,-100.308 -60.025,-131.441c-49.521,-7.921 -99.784,10.116 -132.971,47.725c-74.521,107.533 -139.538,221.325 -194.313,340.112c-458.546,1003.6 -912.666,2009.18 -1372.13,3012.4c-32.483,70.929 -83.45,157.575 -148.075,185.554c-290.942,126.008 -488.142,343.392 -649.704,604.475c-23.379,33.888 -53.371,62.696 -88.179,84.721c-66.509,45.621 -152.98,71.937 -202.63,130.475c-233.5,275.225 -453.158,562.179 -686.35,837.667c-106.525,125.879 -232.841,235.029 -350.183,351.758l-51.837,-27.671c59.545,-304.296 120.095,-608.375 178.2,-912.933c49.125,-257.271 104.291,-514.017 136.691,-773.479c0.567,-78.459 -37.129,-152.455 -100.921,-198.075c-56.22,-29.338 -156.179,-3.155 -224.566,26.97c-68.829,34.325 -128.767,84.109 -175.179,145.492c-222.113,276.579 -438.625,557.713 -656.709,837.533c-33.583,43.13 -64.933,87.963 -97.333,132.009l-53.15,-25c53.412,-174.259 108.012,-348.125 159.808,-522.863c26.838,-90.371 30.825,-178.154 -79.95,-216.421c-107.05,-37 -142.512,29.509 -172.504,118.388c-22.504,77.192 -59.679,149.304 -109.504,212.437c-325.313,369.667 -655.792,734.821 -987.1,1099.19c-57.663,51.446 -119.046,98.471 -183.717,140.721c9.546,-127.938 2.804,-204.996 22.463,-274.567c175.133,-619.671 353.112,-1238.5 533.896,-1856.55c29.775,-102.454 107.183,-222.725 -40.85,-275.575c-35.421,-12.65 -155.696,104.862 -178.067,180.037c-199.304,669.717 -389.5,1342.1 -570.546,2017.11c-24.65,91.858 -1.529,206.833 29.775,300.971c50.35,151.183 178.638,196.279 314.804,110.025c115.279,-72.592 220.579,-159.855 313.313,-259.634c218.525,-237.441 426.629,-484.508 636.046,-730.179c26.095,-39.1 47.37,-81.221 63.395,-125.396l49.696,46.321c-3.546,21.192 -6.7,42.429 -10.771,63.488c-42.47,220.012 -91.42,439.062 -122.462,660.604c-6.479,46.237 52.979,101.754 82.05,152.983c48.162,-25.746 94.4,-54.95 138.271,-87.437c23.116,-19.442 29.858,-57.488 46.496,-85.684c283.15,-480.35 555.395,-968.404 943.491,-1376.6c47.679,-44.571 98.163,-86.121 151.096,-124.387l45.054,27.671c-22.416,126.141 -44.571,252.325 -67.296,378.42c-71.67,397.513 -151.708,793.796 -208.758,1193.36c-12.217,85.687 40.367,244.837 95.183,260.95c83.367,24.475 214.542,-21.758 289.938,-82.225c135.204,-108.408 246.896,-247.158 363.271,-377.85c169.966,-190.854 335.425,-385.779 522.512,-601.675c-11.996,57.708 -20.971,116.025 -26.971,174.696c-4.07,111.954 -38.441,239.104 100.309,300.4c146.5,64.754 215.721,-54.425 274.7,-144.354c230.387,-351.321 449.35,-710.125 675.054,-1064.51c36.033,-56.571 93.171,-152.366 126.487,-146.762c72.725,17.204 134.988,64.275 171.284,129.641c39.754,79.992 52.891,170.58 37.479,258.588c-223.167,934.996 -458.546,1867.15 -682.85,2801.93c-84.108,350.487 -151.404,705.267 -216.333,1059.91c-8.538,46.542 42.82,104.03 66.462,156.484c48.733,-31.35 95.013,-66.375 138.4,-104.775c17.996,-27.496 28.721,-59.109 31.263,-91.9c175.395,-783.638 341.991,-1569.33 527.766,-2350.52c148.25,-623.125 319.709,-1240.74 482.059,-1865.44c148.6,159.9 291.77,289.192 404.075,441.296c134.241,177.496 250.75,367.779 347.729,568.092c100.483,214.625 64.625,408.454 -128.417,588.45c-218.521,202.366 -371.067,465.987 -437.617,756.316c-41.591,181 37,371.242 171.634,444.709c133.275,72.725 303.333,35.379 440.066,-116.859c73.075,-73.554 127.15,-163.791 157.492,-262.962c57.225,-253.813 87.083,-513.671 132.446,-770.329c15.583,-88.267 18.429,-199.259 72.767,-256.438c184.983,-194.708 390.287,-370.016 587.837,-552.771l41.771,37.13c-49.083,58.845 -94.442,120.666 -135.817,185.162c-24.387,42.908 -51.796,108.408 -35.729,145.538c50.658,116.987 130.65,221.191 182.008,337.962c88.4,200.967 222.555,288.621 427.942,221.896c140.763,-42.296 271.588,-112.479 384.638,-206.396c320.362,-284.9 624.529,-588.058 936.879,-885.871c-5.209,82.75 -16.067,173.646 -15.192,264.45c0.483,92.996 7.75,185.821 21.804,277.763c40.892,258.85 213.838,330.741 418.484,165.504c100.875,-83.892 190.15,-180.783 265.458,-288.183c203.683,-283.5 397.425,-574.18 595.15,-861.967l40.196,9.633c-9.371,95.884 -11.3,193.217 -29.425,287.438c-74.346,386.258 -164.934,769.758 -226.929,1157.9c-37.788,236.737 -141.642,426.846 -280.346,616.558c-409.463,560.125 -832.675,1113.2 -1198.71,1701.3c-545.716,876.763 -958.637,1817.72 -1140.08,2843.52c-38.571,214.671 -43.783,433.937 -15.454,650.183c42.775,307.888 310.383,413.975 558.983,227.5c159.025,-115.633 297.688,-256.921 410.384,-418.087c188.75,-274.438 353.991,-564.325 493.966,-866.609c461.917,-1036.27 755.571,-2130.24 1050.37,-3221.55c359.288,-1330.23 123.821,-901.283 1052.21,-2043.25c248.471,-305.609 505.875,-604.038 751.192,-912.1c32.271,-40.542 45.229,-139.93 18.521,-175.438c-65.717,-87.304 -132.488,-24.387 -185.95,36.821Zm-3634.3,-128.2c-69.921,315.067 -183.408,565.246 -428.992,781.229c63.709,-316.642 185.292,-562.396 428.992,-781.229Zm-3868.05,863.412l-63.925,-43.65l375.179,-610.608l57.446,34.242l-368.7,620.016Zm1163.85,-940.295c-200.137,-72.55 -252.633,-179.992 -172.117,-345.059c193.392,-396.679 389.15,-792.262 583.988,-1188.28l33.317,14.708l-445.188,1518.63Zm861.438,2551.14c-39.621,56.35 -140.542,69.613 -213.355,102.671c-4.512,-69.396 -26.97,-143.479 -10.42,-207.446c61.645,-237.875 199.654,-430.917 404.954,-624.004c21.233,290.2 -37.654,524.483 -181.179,728.733l0,0.046Zm3589.95,753.6c-263.929,980.313 -529.604,1961.37 -934.12,2894.88c-164.188,378.988 -379.913,736.305 -583.375,1097.17c-63.046,102.367 -143.125,193.171 -236.825,268.525c-46.105,39.492 -139.142,69.571 -187.13,48.817c-57.445,-37.171 -92.995,-100.308 -95.054,-168.696c21.804,-276.012 29.904,-559.075 100.617,-824.225c365.546,-1370.91 1023.7,-2594.44 1912.2,-3696.95c29.992,-37.217 56.175,-77.496 84.108,-116.375l46.979,28.592c-35.508,156.129 -65.804,313.708 -107.4,468.22l0,0.042Z" style="fill:#fff;fill-rule:nonzero;"/><path d="M14812.7,6865.7c-108.671,-85.596 -174.566,19.483 -245.1,86.167c-114.625,108.408 -219.837,233.233 -351.058,316.379c-452.108,286.562 -912.363,560.516 -1372.92,833.508c-124.171,64.929 -251.537,123.558 -381.575,175.658c-4.025,-78.504 -3.633,-157.137 1.096,-235.6c80.783,-617.654 160.817,-1235.44 247.508,-1852.3c253.159,-1801.56 510.738,-3602.51 762.359,-5404.25c28.812,-205.741 41.375,-413.362 37.654,-621.071c-15.063,-73.908 -67.075,-135.158 -137.613,-162c-103.633,-17.908 -124.429,77.321 -123.075,167.867c4.95,87.438 3.504,175.092 -4.421,262.263c-166.554,1245.51 -327.195,2491.89 -506.575,3735.61c-187.175,1297.7 -393.966,2592.64 -589.591,3889.16c-26.575,176.316 -34.5,360.641 133.233,478.116c160.513,112.434 320.233,29.729 461,-52.891c569.796,-334.509 1138.55,-671.246 1699.46,-1020.38c131.088,-81.571 236.255,-209.242 341.6,-326.275c68.563,-76.184 142.734,-179.6 28.021,-269.971l0,0.004Z" style="fill:#fff;fill-rule:nonzero;"/><path d="M15546.3,2738.61c-74.171,51.838 -143.609,115.809 -225.484,148.121c-24.171,9.5 -83.629,-70.317 -126.887,-109.2c65.675,-53.546 125.571,-119.133 199.829,-154.992c31.175,-15.104 92.733,32.705 140.458,51.925l12.084,64.146Z" style="fill:#fff;fill-rule:nonzero;"/></g></g></g></g></g></g></svg>